<svg viewBox="5.199 6.307 29 35" width="29" height="35" xmlns="http://www.w3.org/2000/svg">
  <path d="M 11.782 35.199 L 11.782 28.123 L 21.109 28.123 C 24.745 28.123 27.692 24.956 27.692 21.048 L 27.692 20.458 C 27.692 16.55 24.745 13.383 21.109 13.383 L 18.366 13.383 C 14.73 13.383 11.782 16.55 11.782 20.458 L 11.782 28.123 L 5.199 28.123 L 5.199 20.458 C 5.199 12.643 11.094 6.307 18.366 6.307 L 21.109 6.307 C 28.381 6.307 34.276 12.643 34.276 20.458 L 34.276 21.048 C 34.276 28.863 28.381 35.199 21.109 35.199 L 11.782 35.199 Z" fill="#3583F8" style="" transform="matrix(1, 0, 0, 1, 3.552713678800501e-15, 0)"/>
  <path d="M 11.782 35.199 L 11.782 42.275 C 8.146 42.275 5.199 39.107 5.199 35.199 L 11.782 35.199 Z" fill="#3583F8" style="" transform="matrix(1, 0, 0, 1, 3.552713678800501e-15, 0)"/>
  <path d="M 15.348 24.291 L 15.348 21.785 C 15.348 19.261 17.252 17.215 19.6 17.215 L 20.56 17.215 C 22.378 17.215 23.852 18.799 23.852 20.753 C 23.852 22.707 22.378 24.291 20.56 24.291 L 15.348 24.291 Z" fill="#3583F8" style="" transform="matrix(1, 0, 0, 1, 3.552713678800501e-15, 0)"/>
</svg>